<svg width="381" height="261" viewBox="0 0 381 261" fill="none" xmlns="http://www.w3.org/2000/svg">
<path d="M158.156 66.125C158.156 56.4584 161.381 47.0089 167.423 38.9715C173.465 30.934 182.052 24.6696 192.099 20.9704C202.146 17.2711 213.202 16.3033 223.868 18.1891C234.533 20.075 244.331 24.7299 252.02 31.5651C259.71 38.4004 264.947 47.1091 267.069 56.59C269.19 66.0708 268.101 75.8979 263.94 84.8286C259.778 93.7594 252.73 101.393 243.688 106.763C234.646 112.134 224.016 115 213.141 115H148.453C139.017 115 129.968 111.668 123.296 105.737C116.623 99.8064 112.875 91.7625 112.875 83.375C112.875 74.9875 116.623 66.9436 123.296 61.0127C129.968 55.0819 139.017 51.75 148.453 51.75C152.39 51.732 156.301 52.3155 160.016 53.475" fill="#F5F8FA"/>
<path d="M184.031 143.75H145.219C143.503 143.75 141.858 143.144 140.645 142.066C139.432 140.988 138.75 139.525 138.75 138C138.75 136.475 139.432 135.012 140.645 133.934C141.858 132.856 143.503 132.25 145.219 132.25H184.031C185.747 132.25 187.392 132.856 188.605 133.934C189.818 135.012 190.5 136.475 190.5 138C190.5 139.525 189.818 140.988 188.605 142.066C187.392 143.144 185.747 143.75 184.031 143.75ZM235.781 132.25H216.375C214.659 132.25 213.014 132.856 211.801 133.934C210.588 135.012 209.906 136.475 209.906 138C209.906 139.525 210.588 140.988 211.801 142.066C213.014 143.144 214.659 143.75 216.375 143.75H235.781C237.497 143.75 239.142 143.144 240.355 142.066C241.568 140.988 242.25 139.525 242.25 138C242.25 136.475 241.568 135.012 240.355 133.934C239.142 132.856 237.497 132.25 235.781 132.25ZM216.375 155.25H171.094C169.378 155.25 167.733 155.856 166.52 156.934C165.307 158.012 164.625 159.475 164.625 161C164.625 162.525 165.307 163.988 166.52 165.066C167.733 166.144 169.378 166.75 171.094 166.75H216.375C218.091 166.75 219.736 166.144 220.949 165.066C222.162 163.988 222.844 162.525 222.844 161C222.844 159.475 222.162 158.012 220.949 156.934C219.736 155.856 218.091 155.25 216.375 155.25ZM274.594 66.125C274.572 80.6066 268.091 94.4897 256.571 104.73C245.051 114.97 229.432 120.731 213.141 120.75H148.453C137.302 120.75 126.607 116.812 118.721 109.803C110.836 102.794 106.406 93.2875 106.406 83.375C106.406 73.4625 110.836 63.9561 118.721 56.9469C126.607 49.9377 137.302 46 148.453 46C150.893 46.01 153.327 46.2023 155.73 46.575C160.857 34.6411 170.527 24.6816 183.058 18.4283C195.59 12.175 210.19 10.0234 224.322 12.3476C238.453 14.6719 251.221 21.3249 260.406 31.15C269.59 40.975 274.611 53.3507 274.594 66.125ZM261.656 66.125C261.656 54.6875 256.545 43.7185 247.446 35.631C238.348 27.5435 226.008 23 213.141 23C200.273 23 187.933 27.5435 178.835 35.631C169.736 43.7185 164.625 54.6875 164.625 66.125C164.625 67.65 163.943 69.1125 162.73 70.1909C161.517 71.2692 159.872 71.875 158.156 71.875C156.441 71.875 154.795 71.2692 153.582 70.1909C152.369 69.1125 151.687 67.65 151.687 66.125C151.682 63.3093 151.926 60.4975 152.415 57.7156C151.101 57.5723 149.778 57.5003 148.453 57.5C140.733 57.5 133.329 60.2261 127.87 65.0786C122.411 69.9311 119.344 76.5125 119.344 83.375C119.344 90.2375 122.411 96.8189 127.87 101.671C133.329 106.524 140.733 109.25 148.453 109.25H213.141C226.008 109.25 238.348 104.706 247.446 96.619C256.545 88.5315 261.656 77.5625 261.656 66.125Z" fill="#F5F8FA"/>
<path d="M202.922 100.75C203.782 99.4462 203.674 97.7298 202.656 96.5442C201.639 95.3585 199.958 94.9909 198.539 95.6432C198.358 95.726 198.177 95.8076 197.996 95.8878C198.911 94.2689 199.665 92.5408 200.235 90.7245C200.671 89.3338 200.199 87.8187 199.051 86.9208C197.903 86.023 196.319 85.9303 195.075 86.6883C191.514 88.8562 187.599 90.4679 183.452 91.512C178.689 87.0438 172.394 84.5 165.415 84.5C150.855 84.5 139.054 96.504 139.054 111.216C139.054 111.702 139.067 112.184 139.093 112.662C122.799 110.694 108.396 102.306 98.5416 90.079C97.8184 89.1817 96.6998 88.6979 95.5507 88.7854C94.4015 88.8729 93.3691 89.5205 92.7902 90.517C90.5013 94.4565 89.2113 99.0672 89.2113 103.911C89.2113 108.637 90.4168 113.104 92.5592 116.971C91.9094 116.96 91.2584 117.129 90.6841 117.477C89.6369 118.111 88.9971 119.246 88.9971 120.471V120.633C88.9971 128.808 92.6387 136.156 98.3865 141.069C98.2405 141.186 98.103 141.316 97.9756 141.458C97.1498 142.379 96.8713 143.668 97.2432 144.847C98.9151 150.152 102.191 154.8 106.619 158.134C108.572 159.605 110.705 160.787 112.954 161.658C106.965 164.776 100.288 166.413 93.4778 166.38L93.4608 166.38C91.7796 166.38 90.0974 166.28 88.4133 166.08C86.7974 165.888 85.2621 166.835 84.7087 168.365C84.1552 169.895 84.7295 171.605 86.0945 172.491C96.812 179.447 109.569 183.5 123.228 183.5C167.78 183.5 192.097 146.077 192.097 113.922V113.886C192.097 113.466 192.097 113.037 192.092 112.599C196.313 109.285 199.947 105.261 202.922 100.75ZM94.7143 173.37C103.337 177.613 113.016 180 123.228 180C165.415 180 188.597 144.607 188.597 113.922C188.597 112.894 188.597 111.92 188.543 110.892C191.258 108.931 193.74 106.655 195.963 104.122L94.7143 173.37Z" fill="#1DA1F2" stroke="#14171A" stroke-width="7" stroke-linejoin="round"/>
<path d="M31.073 226.692C31.625 226.692 32.153 226.908 32.657 227.34C33.161 227.748 33.413 228.312 33.413 229.032C33.413 229.248 33.377 229.488 33.305 229.752L26.213 250.632C26.069 251.064 25.805 251.4 25.421 251.64C25.061 251.856 24.677 251.976 24.269 252C23.861 252 23.453 251.88 23.045 251.64C22.661 251.4 22.361 251.052 22.145 250.596L16.817 238.5L17.141 238.716L11.885 250.596C11.669 251.052 11.357 251.4 10.949 251.64C10.565 251.88 10.169 252 9.76102 252C9.37702 251.976 8.99302 251.856 8.60902 251.64C8.22502 251.4 7.96102 251.064 7.81702 250.632L0.725016 229.752C0.653016 229.488 0.617016 229.248 0.617016 229.032C0.617016 228.312 0.869016 227.748 1.37302 227.34C1.90102 226.908 2.44102 226.692 2.99302 226.692C3.44902 226.692 3.86902 226.812 4.25302 227.052C4.66102 227.292 4.93702 227.64 5.08102 228.096L10.805 245.448L10.013 245.412L15.125 233.136C15.317 232.704 15.593 232.368 15.953 232.128C16.313 231.864 16.721 231.744 17.177 231.768C17.633 231.744 18.041 231.864 18.401 232.128C18.761 232.368 19.025 232.704 19.193 233.136L23.873 244.872L23.297 245.232L28.949 228.096C29.093 227.64 29.369 227.292 29.777 227.052C30.185 226.812 30.617 226.692 31.073 226.692ZM54.4986 242.388C54.4986 244.356 54.0546 246.096 53.1666 247.608C52.3026 249.096 51.1266 250.26 49.6386 251.1C48.1746 251.94 46.5306 252.36 44.7066 252.36C42.8826 252.36 41.2266 251.94 39.7386 251.1C38.2746 250.26 37.0986 249.096 36.2106 247.608C35.3466 246.096 34.9146 244.356 34.9146 242.388C34.9146 240.42 35.3466 238.692 36.2106 237.204C37.0986 235.692 38.2746 234.516 39.7386 233.676C41.2266 232.812 42.8826 232.38 44.7066 232.38C46.5306 232.38 48.1746 232.812 49.6386 233.676C51.1266 234.516 52.3026 235.692 53.1666 237.204C54.0546 238.692 54.4986 240.42 54.4986 242.388ZM50.1786 242.388C50.1786 241.164 49.9266 240.108 49.4226 239.22C48.9426 238.308 48.2826 237.6 47.4426 237.096C46.6266 236.592 45.7146 236.34 44.7066 236.34C43.6986 236.34 42.7746 236.592 41.9346 237.096C41.1186 237.6 40.4586 238.308 39.9546 239.22C39.4746 240.108 39.2346 241.164 39.2346 242.388C39.2346 243.588 39.4746 244.644 39.9546 245.556C40.4586 246.444 41.1186 247.14 41.9346 247.644C42.7746 248.148 43.6986 248.4 44.7066 248.4C45.7146 248.4 46.6266 248.148 47.4426 247.644C48.2826 247.14 48.9426 246.444 49.4226 245.556C49.9266 244.644 50.1786 243.588 50.1786 242.388ZM60.4395 252C59.8155 252 59.2995 251.796 58.8915 251.388C58.4835 250.956 58.2795 250.428 58.2795 249.804V234.936C58.2795 234.312 58.4835 233.796 58.8915 233.388C59.2995 232.956 59.8155 232.74 60.4395 232.74C61.0635 232.74 61.5795 232.956 61.9875 233.388C62.3955 233.796 62.5995 234.312 62.5995 234.936V238.32L62.3475 235.908C62.6115 235.332 62.9475 234.828 63.3555 234.396C63.7875 233.94 64.2675 233.568 64.7955 233.28C65.3235 232.968 65.8875 232.74 66.4875 232.596C67.0875 232.452 67.6875 232.38 68.2875 232.38C69.0075 232.38 69.6075 232.584 70.0875 232.992C70.5915 233.4 70.8435 233.88 70.8435 234.432C70.8435 235.224 70.6395 235.8 70.2315 236.16C69.8235 236.496 69.3795 236.664 68.8995 236.664C68.4435 236.664 68.0235 236.58 67.6395 236.412C67.2795 236.244 66.8595 236.16 66.3795 236.16C65.9475 236.16 65.5035 236.268 65.0475 236.484C64.6155 236.676 64.2075 236.988 63.8235 237.42C63.4635 237.852 63.1635 238.392 62.9235 239.04C62.7075 239.664 62.5995 240.408 62.5995 241.272V249.804C62.5995 250.428 62.3955 250.956 61.9875 251.388C61.5795 251.796 61.0635 252 60.4395 252ZM88.8482 225.36C89.4722 225.36 89.9882 225.564 90.3962 225.972C90.8042 226.38 91.0082 226.908 91.0082 227.556V249.804C91.0082 250.428 90.8042 250.956 90.3962 251.388C89.9882 251.796 89.4722 252 88.8482 252C88.2242 252 87.7082 251.796 87.3002 251.388C86.8922 250.956 86.6882 250.428 86.6882 249.804V248.04L87.4802 248.364C87.4802 248.676 87.3122 249.06 86.9762 249.516C86.6402 249.948 86.1842 250.38 85.6082 250.812C85.0322 251.244 84.3482 251.616 83.5562 251.928C82.7882 252.216 81.9482 252.36 81.0362 252.36C79.3802 252.36 77.8802 251.94 76.5362 251.1C75.1922 250.236 74.1242 249.06 73.3322 247.572C72.5642 246.06 72.1802 244.332 72.1802 242.388C72.1802 240.42 72.5642 238.692 73.3322 237.204C74.1242 235.692 75.1802 234.516 76.5002 233.676C77.8202 232.812 79.2842 232.38 80.8922 232.38C81.9242 232.38 82.8722 232.536 83.7362 232.848C84.6002 233.16 85.3442 233.556 85.9682 234.036C86.6162 234.516 87.1082 235.008 87.4442 235.512C87.8042 235.992 87.9842 236.4 87.9842 236.736L86.6882 237.204V227.556C86.6882 226.932 86.8922 226.416 87.3002 226.008C87.7082 225.576 88.2242 225.36 88.8482 225.36ZM81.5762 248.4C82.6322 248.4 83.5562 248.136 84.3482 247.608C85.1402 247.08 85.7522 246.36 86.1842 245.448C86.6402 244.536 86.8682 243.516 86.8682 242.388C86.8682 241.236 86.6402 240.204 86.1842 239.292C85.7522 238.38 85.1402 237.66 84.3482 237.132C83.5562 236.604 82.6322 236.34 81.5762 236.34C80.5442 236.34 79.6322 236.604 78.8402 237.132C78.0482 237.66 77.4242 238.38 76.9682 239.292C76.5362 240.204 76.3202 241.236 76.3202 242.388C76.3202 243.516 76.5362 244.536 76.9682 245.448C77.4242 246.36 78.0482 247.08 78.8402 247.608C79.6322 248.136 80.5442 248.4 81.5762 248.4ZM113.686 228.024C114.31 228.336 114.67 228.828 114.766 229.5C114.886 230.172 114.718 230.784 114.262 231.336C113.95 231.768 113.542 232.008 113.038 232.056C112.558 232.104 112.066 232.008 111.562 231.768C110.986 231.504 110.374 231.3 109.726 231.156C109.102 231.012 108.442 230.94 107.746 230.94C106.45 230.94 105.286 231.144 104.254 231.552C103.246 231.96 102.382 232.548 101.662 233.316C100.942 234.06 100.39 234.948 100.006 235.98C99.6457 237.012 99.4657 238.152 99.4657 239.4C99.4657 240.864 99.6697 242.136 100.078 243.216C100.51 244.296 101.098 245.196 101.842 245.916C102.586 246.636 103.462 247.176 104.47 247.536C105.478 247.872 106.57 248.04 107.746 248.04C108.394 248.04 109.042 247.98 109.69 247.86C110.338 247.74 110.962 247.524 111.562 247.212C112.066 246.972 112.558 246.888 113.038 246.96C113.542 247.032 113.962 247.284 114.298 247.716C114.778 248.316 114.946 248.94 114.802 249.588C114.682 250.212 114.322 250.668 113.722 250.956C113.098 251.268 112.45 251.532 111.778 251.748C111.13 251.94 110.47 252.084 109.798 252.18C109.126 252.3 108.442 252.36 107.746 252.36C106.018 252.36 104.374 252.084 102.814 251.532C101.278 250.98 99.8977 250.164 98.6737 249.084C97.4737 248.004 96.5257 246.66 95.8297 245.052C95.1337 243.42 94.7857 241.536 94.7857 239.4C94.7857 237.552 95.0977 235.848 95.7217 234.288C96.3697 232.728 97.2697 231.384 98.4217 230.256C99.5977 229.104 100.978 228.216 102.562 227.592C104.146 226.944 105.874 226.62 107.746 226.62C108.802 226.62 109.834 226.74 110.842 226.98C111.85 227.22 112.798 227.568 113.686 228.024ZM122.936 249.804C122.936 250.428 122.72 250.956 122.288 251.388C121.88 251.796 121.364 252 120.74 252C120.14 252 119.636 251.796 119.228 251.388C118.82 250.956 118.616 250.428 118.616 249.804V227.556C118.616 226.932 118.82 226.416 119.228 226.008C119.66 225.576 120.188 225.36 120.812 225.36C121.436 225.36 121.94 225.576 122.324 226.008C122.732 226.416 122.936 226.932 122.936 227.556V249.804ZM146.292 242.388C146.292 244.356 145.848 246.096 144.96 247.608C144.096 249.096 142.92 250.26 141.432 251.1C139.968 251.94 138.324 252.36 136.5 252.36C134.676 252.36 133.02 251.94 131.532 251.1C130.068 250.26 128.892 249.096 128.004 247.608C127.14 246.096 126.708 244.356 126.708 242.388C126.708 240.42 127.14 238.692 128.004 237.204C128.892 235.692 130.068 234.516 131.532 233.676C133.02 232.812 134.676 232.38 136.5 232.38C138.324 232.38 139.968 232.812 141.432 233.676C142.92 234.516 144.096 235.692 144.96 237.204C145.848 238.692 146.292 240.42 146.292 242.388ZM141.972 242.388C141.972 241.164 141.72 240.108 141.216 239.22C140.736 238.308 140.076 237.6 139.236 237.096C138.42 236.592 137.508 236.34 136.5 236.34C135.492 236.34 134.568 236.592 133.728 237.096C132.912 237.6 132.252 238.308 131.748 239.22C131.268 240.108 131.028 241.164 131.028 242.388C131.028 243.588 131.268 244.644 131.748 245.556C132.252 246.444 132.912 247.14 133.728 247.644C134.568 248.148 135.492 248.4 136.5 248.4C137.508 248.4 138.42 248.148 139.236 247.644C140.076 247.14 140.736 246.444 141.216 245.556C141.72 244.644 141.972 243.588 141.972 242.388ZM164.364 232.74C164.988 232.74 165.504 232.956 165.912 233.388C166.32 233.796 166.524 234.312 166.524 234.936V244.08C166.524 246.624 165.816 248.64 164.4 250.128C162.984 251.616 160.944 252.36 158.28 252.36C155.616 252.36 153.576 251.616 152.16 250.128C150.768 248.64 150.072 246.624 150.072 244.08V234.936C150.072 234.312 150.276 233.796 150.684 233.388C151.092 232.956 151.608 232.74 152.232 232.74C152.856 232.74 153.372 232.956 153.78 233.388C154.188 233.796 154.392 234.312 154.392 234.936V244.08C154.392 245.544 154.716 246.636 155.364 247.356C156.012 248.052 156.984 248.4 158.28 248.4C159.6 248.4 160.584 248.052 161.232 247.356C161.88 246.636 162.204 245.544 162.204 244.08V234.936C162.204 234.312 162.408 233.796 162.816 233.388C163.224 232.956 163.74 232.74 164.364 232.74ZM186.969 225.36C187.593 225.36 188.109 225.564 188.517 225.972C188.925 226.38 189.129 226.908 189.129 227.556V249.804C189.129 250.428 188.925 250.956 188.517 251.388C188.109 251.796 187.593 252 186.969 252C186.345 252 185.829 251.796 185.421 251.388C185.013 250.956 184.809 250.428 184.809 249.804V248.04L185.601 248.364C185.601 248.676 185.433 249.06 185.097 249.516C184.761 249.948 184.305 250.38 183.729 250.812C183.153 251.244 182.469 251.616 181.677 251.928C180.909 252.216 180.069 252.36 179.157 252.36C177.501 252.36 176.001 251.94 174.657 251.1C173.313 250.236 172.245 249.06 171.453 247.572C170.685 246.06 170.301 244.332 170.301 242.388C170.301 240.42 170.685 238.692 171.453 237.204C172.245 235.692 173.301 234.516 174.621 233.676C175.941 232.812 177.405 232.38 179.013 232.38C180.045 232.38 180.993 232.536 181.857 232.848C182.721 233.16 183.465 233.556 184.089 234.036C184.737 234.516 185.229 235.008 185.565 235.512C185.925 235.992 186.105 236.4 186.105 236.736L184.809 237.204V227.556C184.809 226.932 185.013 226.416 185.421 226.008C185.829 225.576 186.345 225.36 186.969 225.36ZM179.697 248.4C180.753 248.4 181.677 248.136 182.469 247.608C183.261 247.08 183.873 246.36 184.305 245.448C184.761 244.536 184.989 243.516 184.989 242.388C184.989 241.236 184.761 240.204 184.305 239.292C183.873 238.38 183.261 237.66 182.469 237.132C181.677 236.604 180.753 236.34 179.697 236.34C178.665 236.34 177.753 236.604 176.961 237.132C176.169 237.66 175.545 238.38 175.089 239.292C174.657 240.204 174.441 241.236 174.441 242.388C174.441 243.516 174.657 244.536 175.089 245.448C175.545 246.36 176.169 247.08 176.961 247.608C177.753 248.136 178.665 248.4 179.697 248.4ZM216.137 252.36C214.313 252.36 212.609 252.024 211.025 251.352C209.441 250.68 208.049 249.756 206.849 248.58C205.649 247.38 204.701 246 204.005 244.44C203.333 242.88 202.997 241.2 202.997 239.4C202.997 237.6 203.333 235.92 204.005 234.36C204.701 232.8 205.649 231.432 206.849 230.256C208.049 229.056 209.441 228.12 211.025 227.448C212.609 226.776 214.313 226.44 216.137 226.44C217.265 226.44 218.357 226.56 219.413 226.8C220.469 227.04 221.441 227.4 222.329 227.88C222.689 228.072 222.953 228.336 223.121 228.672C223.313 228.984 223.409 229.308 223.409 229.644C223.409 230.22 223.217 230.736 222.833 231.192C222.449 231.648 221.957 231.876 221.357 231.876C221.165 231.876 220.961 231.852 220.745 231.804C220.553 231.756 220.361 231.684 220.169 231.588C219.569 231.324 218.933 231.12 218.261 230.976C217.589 230.832 216.881 230.76 216.137 230.76C214.577 230.76 213.149 231.156 211.853 231.948C210.581 232.716 209.561 233.76 208.793 235.08C208.049 236.376 207.677 237.816 207.677 239.4C207.677 240.96 208.049 242.4 208.793 243.72C209.561 245.04 210.581 246.096 211.853 246.888C213.149 247.656 214.577 248.04 216.137 248.04C216.857 248.04 217.649 247.968 218.513 247.824C219.377 247.68 220.085 247.488 220.637 247.248L220.313 248.328V242.172L220.925 242.712H216.929C216.305 242.712 215.777 242.508 215.345 242.1C214.937 241.692 214.733 241.176 214.733 240.552C214.733 239.928 214.937 239.412 215.345 239.004C215.777 238.596 216.305 238.392 216.929 238.392H222.833C223.457 238.392 223.973 238.608 224.381 239.04C224.789 239.448 224.993 239.964 224.993 240.588V248.22C224.993 248.7 224.873 249.096 224.633 249.408C224.417 249.72 224.165 249.972 223.877 250.164C222.773 250.836 221.561 251.376 220.241 251.784C218.945 252.168 217.577 252.36 216.137 252.36ZM238.035 252.36C235.995 252.36 234.219 251.94 232.707 251.1C231.219 250.236 230.067 249.072 229.251 247.608C228.459 246.144 228.063 244.488 228.063 242.64C228.063 240.48 228.495 238.644 229.359 237.132C230.247 235.596 231.399 234.42 232.815 233.604C234.231 232.788 235.731 232.38 237.315 232.38C238.539 232.38 239.691 232.632 240.771 233.136C241.875 233.64 242.847 234.336 243.687 235.224C244.527 236.088 245.187 237.096 245.667 238.248C246.171 239.4 246.423 240.624 246.423 241.92C246.399 242.496 246.171 242.964 245.739 243.324C245.307 243.684 244.803 243.864 244.227 243.864H230.475L229.395 240.264H242.607L241.815 240.984V240.012C241.767 239.316 241.515 238.692 241.059 238.14C240.627 237.588 240.075 237.156 239.403 236.844C238.755 236.508 238.059 236.34 237.315 236.34C236.595 236.34 235.923 236.436 235.299 236.628C234.675 236.82 234.135 237.144 233.679 237.6C233.223 238.056 232.863 238.668 232.599 239.436C232.335 240.204 232.203 241.176 232.203 242.352C232.203 243.648 232.467 244.752 232.995 245.664C233.547 246.552 234.243 247.236 235.083 247.716C235.947 248.172 236.859 248.4 237.819 248.4C238.707 248.4 239.415 248.328 239.943 248.184C240.471 248.04 240.891 247.872 241.203 247.68C241.539 247.464 241.839 247.284 242.103 247.14C242.535 246.924 242.943 246.816 243.327 246.816C243.855 246.816 244.287 246.996 244.623 247.356C244.983 247.716 245.163 248.136 245.163 248.616C245.163 249.264 244.827 249.852 244.155 250.38C243.531 250.908 242.655 251.376 241.527 251.784C240.399 252.168 239.235 252.36 238.035 252.36ZM260.493 232.38C262.269 232.38 263.613 232.752 264.525 233.496C265.461 234.24 266.097 235.236 266.433 236.484C266.793 237.708 266.973 239.076 266.973 240.588V249.804C266.973 250.428 266.769 250.956 266.361 251.388C265.953 251.796 265.437 252 264.813 252C264.189 252 263.673 251.796 263.265 251.388C262.857 250.956 262.653 250.428 262.653 249.804V240.588C262.653 239.796 262.545 239.088 262.329 238.464C262.137 237.816 261.777 237.3 261.249 236.916C260.721 236.532 259.965 236.34 258.981 236.34C258.021 236.34 257.205 236.532 256.533 236.916C255.885 237.3 255.381 237.816 255.021 238.464C254.685 239.088 254.517 239.796 254.517 240.588V249.804C254.517 250.428 254.313 250.956 253.905 251.388C253.497 251.796 252.981 252 252.357 252C251.733 252 251.217 251.796 250.809 251.388C250.401 250.956 250.197 250.428 250.197 249.804V234.936C250.197 234.312 250.401 233.796 250.809 233.388C251.217 232.956 251.733 232.74 252.357 232.74C252.981 232.74 253.497 232.956 253.905 233.388C254.313 233.796 254.517 234.312 254.517 234.936V236.484L253.977 236.376C254.193 235.968 254.505 235.536 254.913 235.08C255.321 234.6 255.801 234.156 256.353 233.748C256.905 233.34 257.529 233.016 258.225 232.776C258.921 232.512 259.677 232.38 260.493 232.38ZM280.715 252.36C278.675 252.36 276.899 251.94 275.387 251.1C273.899 250.236 272.747 249.072 271.931 247.608C271.139 246.144 270.743 244.488 270.743 242.64C270.743 240.48 271.175 238.644 272.039 237.132C272.927 235.596 274.079 234.42 275.495 233.604C276.911 232.788 278.411 232.38 279.995 232.38C281.219 232.38 282.371 232.632 283.451 233.136C284.555 233.64 285.527 234.336 286.367 235.224C287.207 236.088 287.867 237.096 288.347 238.248C288.851 239.4 289.103 240.624 289.103 241.92C289.079 242.496 288.851 242.964 288.419 243.324C287.987 243.684 287.483 243.864 286.907 243.864H273.155L272.075 240.264H285.287L284.495 240.984V240.012C284.447 239.316 284.195 238.692 283.739 238.14C283.307 237.588 282.755 237.156 282.083 236.844C281.435 236.508 280.739 236.34 279.995 236.34C279.275 236.34 278.603 236.436 277.979 236.628C277.355 236.82 276.815 237.144 276.359 237.6C275.903 238.056 275.543 238.668 275.279 239.436C275.015 240.204 274.883 241.176 274.883 242.352C274.883 243.648 275.147 244.752 275.675 245.664C276.227 246.552 276.923 247.236 277.763 247.716C278.627 248.172 279.539 248.4 280.499 248.4C281.387 248.4 282.095 248.328 282.623 248.184C283.151 248.04 283.571 247.872 283.883 247.68C284.219 247.464 284.519 247.284 284.783 247.14C285.215 246.924 285.623 246.816 286.007 246.816C286.535 246.816 286.967 246.996 287.303 247.356C287.663 247.716 287.843 248.136 287.843 248.616C287.843 249.264 287.507 249.852 286.835 250.38C286.211 250.908 285.335 251.376 284.207 251.784C283.079 252.168 281.915 252.36 280.715 252.36ZM295.037 252C294.413 252 293.897 251.796 293.489 251.388C293.081 250.956 292.877 250.428 292.877 249.804V234.936C292.877 234.312 293.081 233.796 293.489 233.388C293.897 232.956 294.413 232.74 295.037 232.74C295.661 232.74 296.177 232.956 296.585 233.388C296.993 233.796 297.197 234.312 297.197 234.936V238.32L296.945 235.908C297.209 235.332 297.545 234.828 297.953 234.396C298.385 233.94 298.865 233.568 299.393 233.28C299.921 232.968 300.485 232.74 301.085 232.596C301.685 232.452 302.285 232.38 302.885 232.38C303.605 232.38 304.205 232.584 304.685 232.992C305.189 233.4 305.441 233.88 305.441 234.432C305.441 235.224 305.237 235.8 304.829 236.16C304.421 236.496 303.977 236.664 303.497 236.664C303.041 236.664 302.621 236.58 302.237 236.412C301.877 236.244 301.457 236.16 300.977 236.16C300.545 236.16 300.101 236.268 299.645 236.484C299.213 236.676 298.805 236.988 298.421 237.42C298.061 237.852 297.761 238.392 297.521 239.04C297.305 239.664 297.197 240.408 297.197 241.272V249.804C297.197 250.428 296.993 250.956 296.585 251.388C296.177 251.796 295.661 252 295.037 252ZM323.833 232.38C324.457 232.38 324.973 232.584 325.381 232.992C325.789 233.4 325.993 233.928 325.993 234.576V249.804C325.993 250.428 325.789 250.956 325.381 251.388C324.973 251.796 324.457 252 323.833 252C323.209 252 322.693 251.796 322.285 251.388C321.877 250.956 321.673 250.428 321.673 249.804V248.04L322.465 248.364C322.465 248.676 322.297 249.06 321.961 249.516C321.625 249.948 321.169 250.38 320.593 250.812C320.017 251.244 319.333 251.616 318.541 251.928C317.773 252.216 316.933 252.36 316.021 252.36C314.365 252.36 312.865 251.94 311.521 251.1C310.177 250.236 309.109 249.06 308.317 247.572C307.549 246.06 307.165 244.332 307.165 242.388C307.165 240.42 307.549 238.692 308.317 237.204C309.109 235.692 310.165 234.516 311.485 233.676C312.805 232.812 314.269 232.38 315.877 232.38C316.909 232.38 317.857 232.536 318.721 232.848C319.585 233.16 320.329 233.556 320.953 234.036C321.601 234.516 322.093 235.008 322.429 235.512C322.789 235.992 322.969 236.4 322.969 236.736L321.673 237.204V234.576C321.673 233.952 321.877 233.436 322.285 233.028C322.693 232.596 323.209 232.38 323.833 232.38ZM316.561 248.4C317.617 248.4 318.541 248.136 319.333 247.608C320.125 247.08 320.737 246.36 321.169 245.448C321.625 244.536 321.853 243.516 321.853 242.388C321.853 241.236 321.625 240.204 321.169 239.292C320.737 238.38 320.125 237.66 319.333 237.132C318.541 236.604 317.617 236.34 316.561 236.34C315.529 236.34 314.617 236.604 313.825 237.132C313.033 237.66 312.409 238.38 311.953 239.292C311.521 240.204 311.305 241.236 311.305 242.388C311.305 243.516 311.521 244.536 311.953 245.448C312.409 246.36 313.033 247.08 313.825 247.608C314.617 248.136 315.529 248.4 316.561 248.4ZM330.886 233.1H339.418C339.994 233.1 340.474 233.292 340.858 233.676C341.242 234.06 341.434 234.54 341.434 235.116C341.434 235.668 341.242 236.136 340.858 236.52C340.474 236.88 339.994 237.06 339.418 237.06H330.886C330.31 237.06 329.83 236.868 329.446 236.484C329.062 236.1 328.87 235.62 328.87 235.044C328.87 234.492 329.062 234.036 329.446 233.676C329.83 233.292 330.31 233.1 330.886 233.1ZM334.738 228.6C335.362 228.6 335.866 228.816 336.25 229.248C336.658 229.656 336.862 230.172 336.862 230.796V246.816C336.862 247.152 336.922 247.428 337.042 247.644C337.186 247.86 337.366 248.016 337.582 248.112C337.822 248.208 338.074 248.256 338.338 248.256C338.626 248.256 338.89 248.208 339.13 248.112C339.37 247.992 339.646 247.932 339.958 247.932C340.294 247.932 340.594 248.088 340.858 248.4C341.146 248.712 341.29 249.144 341.29 249.696C341.29 250.368 340.918 250.92 340.174 251.352C339.454 251.784 338.674 252 337.834 252C337.33 252 336.766 251.964 336.142 251.892C335.542 251.796 334.966 251.592 334.414 251.28C333.886 250.944 333.442 250.44 333.082 249.768C332.722 249.096 332.542 248.172 332.542 246.996V230.796C332.542 230.172 332.746 229.656 333.154 229.248C333.586 228.816 334.114 228.6 334.738 228.6ZM363.909 242.388C363.909 244.356 363.465 246.096 362.577 247.608C361.713 249.096 360.537 250.26 359.049 251.1C357.585 251.94 355.941 252.36 354.117 252.36C352.293 252.36 350.637 251.94 349.149 251.1C347.685 250.26 346.509 249.096 345.621 247.608C344.757 246.096 344.325 244.356 344.325 242.388C344.325 240.42 344.757 238.692 345.621 237.204C346.509 235.692 347.685 234.516 349.149 233.676C350.637 232.812 352.293 232.38 354.117 232.38C355.941 232.38 357.585 232.812 359.049 233.676C360.537 234.516 361.713 235.692 362.577 237.204C363.465 238.692 363.909 240.42 363.909 242.388ZM359.589 242.388C359.589 241.164 359.337 240.108 358.833 239.22C358.353 238.308 357.693 237.6 356.853 237.096C356.037 236.592 355.125 236.34 354.117 236.34C353.109 236.34 352.185 236.592 351.345 237.096C350.529 237.6 349.869 238.308 349.365 239.22C348.885 240.108 348.645 241.164 348.645 242.388C348.645 243.588 348.885 244.644 349.365 245.556C349.869 246.444 350.529 247.14 351.345 247.644C352.185 248.148 353.109 248.4 354.117 248.4C355.125 248.4 356.037 248.148 356.853 247.644C357.693 247.14 358.353 246.444 358.833 245.556C359.337 244.644 359.589 243.588 359.589 242.388ZM369.85 252C369.226 252 368.71 251.796 368.302 251.388C367.894 250.956 367.69 250.428 367.69 249.804V234.936C367.69 234.312 367.894 233.796 368.302 233.388C368.71 232.956 369.226 232.74 369.85 232.74C370.474 232.74 370.99 232.956 371.398 233.388C371.806 233.796 372.01 234.312 372.01 234.936V238.32L371.758 235.908C372.022 235.332 372.358 234.828 372.766 234.396C373.198 233.94 373.678 233.568 374.206 233.28C374.734 232.968 375.298 232.74 375.898 232.596C376.498 232.452 377.098 232.38 377.698 232.38C378.418 232.38 379.018 232.584 379.498 232.992C380.002 233.4 380.254 233.88 380.254 234.432C380.254 235.224 380.05 235.8 379.642 236.16C379.234 236.496 378.79 236.664 378.31 236.664C377.854 236.664 377.434 236.58 377.05 236.412C376.69 236.244 376.27 236.16 375.79 236.16C375.358 236.16 374.914 236.268 374.458 236.484C374.026 236.676 373.618 236.988 373.234 237.42C372.874 237.852 372.574 238.392 372.334 239.04C372.118 239.664 372.01 240.408 372.01 241.272V249.804C372.01 250.428 371.806 250.956 371.398 251.388C370.99 251.796 370.474 252 369.85 252Z" fill="#1DA1F2"/>
</svg>
